<svg width="47" height="84" viewBox="0 0 47 84" fill="none" xmlns="http://www.w3.org/2000/svg">
<path d="M23.8701 0.39172C20.0036 2.31449 17.6372 4.40639 16.5061 6.89886C15.9767 8.07389 15.6799 9.57827 15.6959 10.9758C15.712 12.0529 15.7601 12.231 16.0489 12.2666C16.1772 12.2844 16.3698 12.3734 16.474 12.4713C16.8751 12.8185 17.926 12.6049 19.1453 11.9194C21.3512 10.691 23.1481 7.72672 24.1027 3.73876C24.2872 2.96431 24.7525 0.320507 24.7525 0.0356522C24.7525 -0.0355614 24.6241 0.0178488 23.8701 0.39172Z" fill="url(#paint0_linear_6209_25838)"/>
<path d="M11.3668 3.76556C8.71963 9.27572 8.38272 13.2637 10.2839 16.8244C10.7491 17.6967 11.2946 18.4089 11.5673 18.4801C11.8641 18.5691 12.2733 18.2219 12.8268 17.3941C15.2974 13.7444 15.2413 10.0413 12.6182 4.20175C12.2652 3.4095 11.9444 2.75967 11.9123 2.75967C11.8802 2.75967 11.6315 3.21366 11.3668 3.76556Z" fill="url(#paint1_linear_6209_25838)"/>
<path d="M21.9613 11.7503C20.3409 12.3289 19.4746 12.7206 18.4157 13.3259C16.2258 14.581 14.6054 16.21 13.8032 17.9815C13.2818 19.1298 12.9609 20.6431 12.9609 21.9427V22.2099C12.9609 22.3801 13.0824 22.526 13.2497 22.557V22.557C13.4021 22.5926 13.5947 22.6994 13.6668 22.7973C13.9075 23.1 14.3327 23.1712 15.1268 23.0198C16.6349 22.7261 17.6376 22.1564 18.7606 20.9458C20.4853 19.0942 21.7608 16.4504 22.6752 12.8897C22.8517 12.1865 23.0122 11.5634 23.0282 11.501C23.0763 11.3586 23.0844 11.3497 21.9613 11.7503Z" fill="url(#paint2_linear_6209_25838)"/>
<path d="M5.76029 16.1746C4.36451 21.6313 4.56505 25.1386 6.44214 28.1919C7.30046 29.5983 8.07857 30.355 8.65613 30.355C8.84063 30.355 8.93689 30.2482 9.24974 29.7052C9.4583 29.358 9.77115 28.7082 9.93961 28.272C11.3915 24.5422 10.5091 20.8302 7.02772 15.9787C6.58653 15.3645 6.19346 14.866 6.16138 14.866C6.12127 14.866 5.93677 15.4535 5.76029 16.1746Z" fill="url(#paint3_linear_6209_25838)"/>
<path d="M16.6128 22.9845C14.4389 24.7114 12.6019 26.5541 11.6955 27.9071C11.166 28.6994 10.5243 30.1148 10.3157 30.9782C9.97882 32.3669 9.9708 33.987 10.2756 35.5092C10.3959 36.0789 10.428 36.1412 10.5965 36.1412C10.7088 36.1412 10.9174 36.2035 11.0618 36.2836C11.3104 36.4172 11.3746 36.4172 11.7677 36.2836C12.9067 35.9098 14.3426 34.6902 15.225 33.3194C16.8855 30.7646 17.4631 28.1297 17.6155 22.4059C17.6155 22.2457 17.3588 22.397 16.6128 22.9845Z" fill="url(#paint4_linear_6209_25838)"/>
<path d="M1.92361 29.171C2.05998 32.0641 2.54931 34.5832 3.36752 36.5416C4.01728 38.0905 5.24461 39.8263 6.26336 40.6364C7.25806 41.4286 8.48538 41.9004 8.66988 41.5711C8.69395 41.5177 8.82229 41.4821 8.95064 41.4821C9.23942 41.4821 9.29557 41.3752 9.48007 40.4139C9.69666 39.3011 9.6726 37.325 9.43997 36.3636C8.85438 33.9512 7.14575 31.6813 4.33013 29.5716C3.7285 29.1265 1.97977 27.9515 1.91559 27.9515C1.89153 27.9515 1.89153 28.5034 1.92361 29.171Z" fill="url(#paint5_linear_6209_25838)"/>
<path d="M16.3652 33.5773C14.9132 35.233 13.9907 36.5683 12.98 38.4554C12.3302 39.675 11.8489 41.4642 11.7848 42.9241C11.7126 44.5175 11.9853 45.9952 12.619 47.3927L12.6968 47.5653C12.8138 47.8251 13.0809 47.9838 13.365 47.9624V47.9624C13.718 47.9357 13.9185 47.8556 14.1752 47.6598C15.5309 46.6272 16.8705 44.5531 17.4 42.6748C18.0257 40.4672 18.0016 37.5742 17.3197 33.9779C17.2074 33.3548 17.0871 32.8474 17.063 32.8474C17.031 32.8474 16.7181 33.1767 16.3652 33.5773Z" fill="url(#paint6_linear_6209_25838)"/>
<path d="M0.633859 40.7167C0.714076 41.1083 1.81305 43.6275 2.25425 44.4287C4.47626 48.4879 6.85069 50.5085 9.64225 50.7133C10.4685 50.7756 10.8936 50.6599 11.0862 50.3394C11.1503 50.2237 11.3589 50.0902 11.5755 50.0278V50.0278C11.7907 49.9604 11.9294 49.7516 11.9082 49.5271L11.8883 49.3157C11.776 47.9181 11.0942 46.12 10.2359 44.9183C8.60745 42.6572 6.16885 41.4644 1.58844 40.69L0.782507 40.5601C0.691694 40.5455 0.614562 40.6267 0.633859 40.7167V40.7167Z" fill="url(#paint7_linear_6209_25838)"/>
<path d="M18.4082 44.5802C14.8225 49.6809 13.9401 53.9537 15.6647 57.8437C15.8252 58.1998 16.0578 58.6538 16.1781 58.8407C16.3787 59.1434 16.4589 59.1968 16.6996 59.1968C17.1087 59.1968 17.3493 59.0276 18.0312 58.2354C20.55 55.3067 21.1596 51.7639 19.9804 46.8323C19.6756 45.5861 19.1382 43.7078 19.074 43.7078C19.0419 43.7078 18.7451 44.0995 18.4082 44.5802Z" fill="url(#paint8_linear_6209_25838)"/>
<path d="M22.718 51.7371C20.4719 56.8022 20.119 60.354 21.5469 63.6031C22.2528 65.2232 23.079 66.3181 23.4961 66.1935C23.7448 66.1223 24.2742 65.5169 24.7074 64.8137C26.7048 61.5023 26.769 58.3956 24.94 53.7667C24.547 52.7697 23.4239 50.3841 23.3517 50.3841C23.3357 50.3841 23.0549 50.9983 22.718 51.7371Z" fill="url(#paint9_linear_6209_25838)"/>
<path d="M2.29297 50.4997C2.29297 50.5264 2.50153 50.9448 2.76625 51.4255C3.02295 51.9062 3.38392 52.5916 3.56842 52.9477C4.33049 54.4076 6.23163 56.7398 7.42687 57.6745C8.82265 58.7694 10.1061 59.2768 11.6383 59.348C12.8014 59.4014 13.2105 59.3035 13.5635 58.8851C13.6918 58.716 13.9806 58.5023 14.1892 58.4044C14.3977 58.3065 14.5662 58.1641 14.5662 58.1018C14.5662 57.8436 14.1411 56.5529 13.8442 55.8852C13.0822 54.185 12.1677 53.1079 10.6997 52.1732C9.3601 51.3187 8.22904 50.927 6.42415 50.6956C5.34924 50.5531 2.29297 50.4018 2.29297 50.4997Z" fill="url(#paint10_linear_6209_25838)"/>
<path d="M28.0927 56.9444C27.828 58.4043 27.6996 59.9176 27.6916 61.7336C27.6836 64.2883 27.9162 65.7215 28.6141 67.4485C29.1756 68.846 30.427 70.5908 31.3736 71.3029C31.6944 71.5521 31.8709 71.6144 32.272 71.6412L32.3019 71.6433C32.5827 71.6634 32.8462 71.5061 32.9619 71.2495V71.2495C33.8844 69.2199 34.1411 66.7096 33.6197 64.7601C33.2186 63.2558 32.5367 61.9027 31.3575 60.2648C30.8361 59.5348 28.3173 56.7041 28.197 56.7041C28.1649 56.7041 28.1168 56.8109 28.0927 56.9444Z" fill="url(#paint11_linear_6209_25838)"/>
<path d="M10.3978 59.9085C9.84425 59.9975 8.96988 60.1488 8.44045 60.2556C7.91904 60.3536 7.47784 60.4426 7.45378 60.4426C7.43774 60.4426 7.7185 60.8165 8.07947 61.2704C8.44045 61.7244 8.83352 62.2941 8.95384 62.5434C9.09021 62.8193 9.46723 63.2733 9.96458 63.7629C13.069 66.8162 15.9488 67.9111 18.7002 67.1011C19.2858 66.9319 19.3821 66.8696 19.7832 66.4156C20.0238 66.1397 20.3607 65.837 20.5292 65.7391C20.8982 65.5255 20.8902 65.4364 20.4169 64.5018C19.2698 62.2496 17.5531 60.763 15.4514 60.1933C13.7027 59.7126 12.1625 59.6325 10.3978 59.9085Z" fill="url(#paint12_linear_6209_25838)"/>
<path d="M34.8633 64.5733C34.8633 64.7869 35.9542 67.6799 36.3473 68.5167C38.4009 72.8963 40.9197 75.2286 43.7353 75.3799L44.1809 75.3995C44.4123 75.4097 44.6364 75.3179 44.7942 75.1485V75.1485C44.9386 74.9971 45.1792 74.8458 45.3316 74.8102V74.8102C45.5635 74.7696 45.6668 74.5585 45.6519 74.3235C45.6421 74.169 45.6256 73.9776 45.6044 73.7776C45.4359 72.2198 44.9225 70.6798 44.2166 69.576C43.7754 68.8817 42.7567 67.8046 42.0828 67.315C40.7753 66.3536 38.7939 65.5079 36.3874 64.8848C35.0237 64.5376 34.8633 64.502 34.8633 64.5733Z" fill="url(#paint13_linear_6209_25838)"/>
<path d="M20.4477 67.3863C19.4851 67.502 18.5947 67.7156 17.4957 68.1073C16.2684 68.5435 14.6961 69.22 14.672 69.3179C14.664 69.3535 14.9688 69.6473 15.3459 69.9589C15.771 70.3149 16.0758 70.6443 16.132 70.8045C16.2684 71.1695 16.4849 71.3742 17.263 71.9083C19.5893 73.5017 21.9076 74.3207 23.8328 74.2139C25.3489 74.1249 27.0415 73.4305 27.4426 72.7273C27.5469 72.5493 27.8517 72.1754 28.1325 71.8994L28.211 71.8234C28.4574 71.5846 28.4954 71.2029 28.3009 70.9202V70.9202C27.1618 69.2467 25.5334 68.0183 23.8649 67.5643C23.0788 67.3507 21.4504 67.2705 20.4477 67.3863Z" fill="url(#paint14_linear_6209_25838)"/>
<path d="M30.6516 72.896C29.0312 73.2787 27.4028 74.0799 25.6942 75.3439C23.8492 76.7148 23.1673 77.3557 23.5604 77.3557C23.6085 77.3557 23.9053 77.4892 24.2342 77.6584C24.6594 77.872 24.8519 78.0322 24.9241 78.2103C25.0765 78.5574 25.4375 78.7355 26.7209 79.1004C29.4644 79.866 31.5901 79.8482 33.5073 79.0559C34.502 78.6376 35.7213 77.6406 36.1946 76.8483C36.3631 76.5724 36.6919 76.0472 36.9246 75.6733C37.4299 74.8988 37.454 74.9879 36.5074 74.2846C35.7534 73.7238 34.9673 73.3232 34.1009 73.0295C33.1223 72.709 31.7105 72.6556 30.6516 72.896Z" fill="url(#paint15_linear_6209_25838)"/>
<path d="M40.5152 76.6796C39.3761 76.9822 38.5178 77.3828 37.1541 78.2641C36.3787 78.765 34.6014 80.3035 33.7224 81.1788C33.3391 81.5604 33.4595 81.9171 33.9615 82.1185V82.1185C34.547 82.3411 34.6674 82.4212 34.6834 82.5903C34.7235 82.893 35.1888 83.0888 36.384 83.3381C37.2343 83.5072 37.6514 83.5428 39.1515 83.5339C40.812 83.5339 40.9644 83.5161 41.7185 83.2936C43.7961 82.6704 45.0635 81.6022 46.2507 79.4925C46.6037 78.8605 46.8925 78.3086 46.8925 78.273C46.8925 78.0772 45.1999 77.1247 44.2453 76.7775C43.6677 76.5639 43.395 76.5283 42.4404 76.5016C41.4698 76.4749 41.2051 76.4927 40.5152 76.6796Z" fill="url(#paint16_linear_6209_25838)"/>
<defs>
<linearGradient id="paint0_linear_6209_25838" x1="20.2239" y1="0.00862026" x2="20.2239" y2="12.6353" gradientUnits="userSpaceOnUse">
<stop stop-color="#0EA754"/>
<stop offset="1" stop-color="#16C265"/>
</linearGradient>
<linearGradient id="paint1_linear_6209_25838" x1="11.856" y1="2.75967" x2="11.856" y2="18.4937" gradientUnits="userSpaceOnUse">
<stop stop-color="#0EA754"/>
<stop offset="1" stop-color="#16C265"/>
</linearGradient>
<linearGradient id="paint2_linear_6209_25838" x1="18.0024" y1="11.4117" x2="18.0024" y2="23.0967" gradientUnits="userSpaceOnUse">
<stop stop-color="#0EA754"/>
<stop offset="1" stop-color="#16C265"/>
</linearGradient>
<linearGradient id="paint3_linear_6209_25838" x1="7.73036" y1="14.866" x2="7.73036" y2="30.355" gradientUnits="userSpaceOnUse">
<stop stop-color="#0EA754"/>
<stop offset="1" stop-color="#16C265"/>
</linearGradient>
<linearGradient id="paint4_linear_6209_25838" x1="13.8351" y1="22.3461" x2="13.8351" y2="36.3838" gradientUnits="userSpaceOnUse">
<stop stop-color="#0EA754"/>
<stop offset="1" stop-color="#16C265"/>
</linearGradient>
<linearGradient id="paint5_linear_6209_25838" x1="5.76389" y1="27.9515" x2="5.76389" y2="41.6772" gradientUnits="userSpaceOnUse">
<stop stop-color="#0EA754"/>
<stop offset="1" stop-color="#16C265"/>
</linearGradient>
<linearGradient id="paint6_linear_6209_25838" x1="14.8122" y1="32.8474" x2="14.8122" y2="47.998" gradientUnits="userSpaceOnUse">
<stop stop-color="#0EA754"/>
<stop offset="1" stop-color="#16C265"/>
</linearGradient>
<linearGradient id="paint7_linear_6209_25838" x1="6.26912" y1="40.5297" x2="6.26912" y2="50.7295" gradientUnits="userSpaceOnUse">
<stop stop-color="#0EA754"/>
<stop offset="1" stop-color="#16C265"/>
</linearGradient>
<linearGradient id="paint8_linear_6209_25838" x1="17.6858" y1="43.7078" x2="17.6858" y2="59.1968" gradientUnits="userSpaceOnUse">
<stop stop-color="#0EA754"/>
<stop offset="1" stop-color="#16C265"/>
</linearGradient>
<linearGradient id="paint9_linear_6209_25838" x1="23.478" y1="50.3841" x2="23.478" y2="66.2031" gradientUnits="userSpaceOnUse">
<stop stop-color="#0EA754"/>
<stop offset="1" stop-color="#16C265"/>
</linearGradient>
<linearGradient id="paint10_linear_6209_25838" x1="8.42958" y1="50.4685" x2="8.42958" y2="59.3613" gradientUnits="userSpaceOnUse">
<stop stop-color="#0EA754"/>
<stop offset="1" stop-color="#16C265"/>
</linearGradient>
<linearGradient id="paint11_linear_6209_25838" x1="30.7887" y1="56.7041" x2="30.7887" y2="71.6768" gradientUnits="userSpaceOnUse">
<stop stop-color="#0EA754"/>
<stop offset="1" stop-color="#16C265"/>
</linearGradient>
<linearGradient id="paint12_linear_6209_25838" x1="14.1218" y1="59.7506" x2="14.1218" y2="67.3589" gradientUnits="userSpaceOnUse">
<stop stop-color="#0EA754"/>
<stop offset="1" stop-color="#16C265"/>
</linearGradient>
<linearGradient id="paint13_linear_6209_25838" x1="40.2626" y1="64.543" x2="40.2626" y2="75.4155" gradientUnits="userSpaceOnUse">
<stop stop-color="#0EA754"/>
<stop offset="1" stop-color="#16C265"/>
</linearGradient>
<linearGradient id="paint14_linear_6209_25838" x1="21.6549" y1="67.3332" x2="21.6549" y2="74.2231" gradientUnits="userSpaceOnUse">
<stop stop-color="#0EA754"/>
<stop offset="1" stop-color="#16C265"/>
</linearGradient>
<linearGradient id="paint15_linear_6209_25838" x1="30.3619" y1="72.7466" x2="30.3619" y2="79.6626" gradientUnits="userSpaceOnUse">
<stop stop-color="#0EA754"/>
<stop offset="1" stop-color="#16C265"/>
</linearGradient>
<linearGradient id="paint16_linear_6209_25838" x1="40.0517" y1="76.4917" x2="40.0517" y2="83.5352" gradientUnits="userSpaceOnUse">
<stop stop-color="#0EA754"/>
<stop offset="1" stop-color="#16C265"/>
</linearGradient>
</defs>
</svg>
