<svg width="19" height="19" viewBox="0 0 19 19" fill="none" xmlns="http://www.w3.org/2000/svg">
<g clip-path="url(#clip0_5506_27674)">
<path d="M4.12212 16.6415V12.9363M4.12212 5.52598V1.8208M2.26953 3.67339H5.97471M2.26953 14.7889H5.97471M10.4209 2.56184L9.13584 5.90306C8.92686 6.44641 8.82237 6.71809 8.65988 6.94661C8.51586 7.14914 8.33891 7.3261 8.13638 7.47011C7.90786 7.6326 7.63618 7.73709 7.09283 7.94607L3.7516 9.23116L7.09283 10.5162C7.63618 10.7252 7.90786 10.8297 8.13638 10.9922C8.33891 11.1362 8.51586 11.3132 8.65988 11.5157C8.82237 11.7442 8.92686 12.0159 9.13584 12.5593L10.4209 15.9005L11.706 12.5593C11.915 12.0159 12.0195 11.7442 12.182 11.5157C12.326 11.3132 12.5029 11.1362 12.7055 10.9922C12.934 10.8297 13.2057 10.7252 13.749 10.5162L17.0902 9.23116L13.749 7.94607C13.2057 7.73709 12.934 7.6326 12.7055 7.47011C12.5029 7.3261 12.326 7.14914 12.182 6.94661C12.0195 6.71809 11.915 6.44641 11.706 5.90306L10.4209 2.56184Z" stroke="#0E106D" stroke-width="1.66733" stroke-linecap="round" stroke-linejoin="round"/>
</g>
<defs>
<clipPath id="clip0_5506_27674">
<rect width="17.7849" height="17.7849" fill="white" transform="translate(0.785156 0.338867)"/>
</clipPath>
</defs>
</svg>
