<svg width="174" height="115" viewBox="0 0 174 115" fill="none" xmlns="http://www.w3.org/2000/svg">
<g clip-path="url(#clip0_6576_72972)">
<path d="M72.3086 58.5833V49.6606H73.1686C73.8886 49.6606 74.4686 50.2318 74.4686 50.9212V54.9C75.8686 53.6788 77.0486 53.1863 78.6286 53.1666C81.6486 53.1076 84.2686 55.3136 84.5286 58.2879C84.8286 61.8333 82.2086 64.4924 78.7886 64.4924C75.0286 64.4727 72.3086 62.1879 72.3086 58.5833ZM74.4286 59.2924C74.6486 61.1439 76.4286 62.6606 78.3286 62.7C80.7886 62.7394 82.4686 61.1636 82.4686 58.8197C82.4686 56.4757 80.8086 54.9394 78.4286 54.9394C75.8686 54.9394 74.1286 56.7515 74.4286 59.2924Z" fill="#838383"/>
<path d="M88.0872 53.3636V54.959C89.4472 53.4818 90.2472 53.0878 91.8272 53.0878C92.2872 53.0878 92.7472 53.1272 93.2072 53.206V55.3136C92.7272 55.1757 92.2272 55.1166 91.7272 55.1166C90.5872 55.1166 89.6272 55.4909 88.9072 56.1803C88.2872 56.7909 88.1072 57.2636 88.1072 58.2287V64.1181H85.8672V53.3636H88.0872Z" fill="#838383"/>
<path d="M93.729 56.9286C93.849 55.8846 94.049 55.3134 94.509 54.7816C95.429 53.6786 97.069 53.1074 99.409 53.1074C101.269 53.1074 102.609 53.3831 103.549 53.9937C104.329 54.4861 104.649 55.2346 104.649 56.5346V61.3013C104.649 62.3452 104.929 62.7195 105.689 62.6998C105.849 62.6998 106.029 62.6801 106.189 62.6604V64.0983C105.809 64.2165 105.409 64.2755 105.029 64.2755C103.629 64.2755 102.989 63.8619 102.549 62.6604C101.169 63.9013 99.749 64.4331 97.709 64.4331C94.989 64.4331 93.309 63.2119 93.309 61.2225C93.289 60.0998 93.969 59.0558 95.029 58.6028C95.849 58.2483 96.349 58.1498 98.709 57.9134C100.729 57.7165 101.069 57.6771 101.649 57.4998C102.269 57.3028 102.549 56.968 102.549 56.4361C102.549 55.274 101.569 54.7619 99.509 54.7619C97.569 54.7619 96.549 55.1361 96.149 56.121C95.949 56.6134 95.469 56.9483 94.929 56.9483L93.729 56.9286ZM102.549 58.7604C101.129 59.174 99.689 59.4301 98.209 59.5483C96.209 59.7452 95.589 60.1195 95.589 61.0846C95.589 62.168 96.509 62.7392 98.309 62.7392C99.789 62.7392 100.929 62.3649 101.729 61.6558C102.369 61.0649 102.529 60.6513 102.529 59.6271V58.7604H102.549Z" fill="#838383"/>
<path d="M111.568 64.0984H110.988C110.488 64.0984 110.028 63.8227 109.808 63.3696L105.008 53.3636H106.348C107.128 53.3636 107.828 53.7969 108.148 54.506L111.348 61.6954L114.668 54.4863C114.988 53.7969 115.688 53.3636 116.468 53.3636H117.688L112.768 63.3893C112.528 63.8424 112.068 64.1181 111.568 64.0984Z" fill="#838383"/>
<path d="M119.187 59.3712C119.407 61.4393 121.067 62.7196 123.507 62.7196C124.907 62.7196 125.947 62.306 126.587 61.4984C126.967 61.0257 127.547 60.7696 128.147 60.7696H129.447C128.307 63.1924 126.307 64.3939 123.307 64.3939C119.567 64.3939 117.027 62.1484 117.027 58.8C117.027 55.4515 119.607 53.0878 123.347 53.0878C126.047 53.0878 128.227 54.2893 129.107 56.2984C129.487 57.2242 129.647 58.0318 129.647 59.3712H119.187ZM127.387 57.6969C126.887 55.806 125.387 54.7424 123.327 54.7424C121.267 54.7424 119.767 55.806 119.247 57.6969H127.387Z" fill="#838383"/>
<path d="M65.4261 50.7242L66.0461 49.2273C66.0461 49.2273 65.2661 48.4 64.3061 47.4545C63.3461 46.5091 61.3261 47.0606 61.3261 47.0606L59.0261 44.5H54.9861H50.9261L48.6261 47.0803C48.6261 47.0803 46.6061 46.5288 45.6461 47.4742C44.6861 48.4197 43.9061 49.247 43.9061 49.247L44.5261 50.7439L43.7461 52.95C43.7461 52.95 46.0661 61.5773 46.3261 62.6409C46.8661 64.7091 47.2261 65.5167 48.7461 66.5803C50.2661 67.6439 53.0061 69.4561 53.4661 69.7318C53.9061 70.0076 54.4861 70.4803 54.9861 70.4803C55.4861 70.4803 56.0461 70.0076 56.5061 69.7318C56.9461 69.4561 59.7061 67.6242 61.2261 66.5803C62.7461 65.5364 63.1061 64.7288 63.6461 62.6409C63.9261 61.5773 66.2261 52.95 66.2261 52.95L65.4261 50.7242Z" fill="#898989"/>
<path d="M60.6842 48.7151C60.6842 48.7151 63.6442 52.2409 63.6442 53.0091C63.6442 53.7772 63.2642 53.9545 62.8842 54.3485C62.5042 54.7424 60.8642 56.456 60.6642 56.6727C60.4442 56.8894 60.0242 57.2242 60.2642 57.8348C60.5242 58.4257 60.9042 59.1939 60.4842 59.9818C60.0642 60.75 59.3442 61.2818 58.8842 61.1833C58.4242 61.1045 57.3242 60.5333 56.9242 60.2772C56.5242 60.0212 55.2642 58.9969 55.2642 58.603C55.2642 58.2091 56.5842 57.5 56.8242 57.3424C57.0642 57.1848 58.1642 56.5545 58.1842 56.3182C58.2042 56.0818 58.2042 56.003 57.8642 55.3924C57.5442 54.7818 56.9442 53.9742 57.0442 53.4424C57.1442 52.9106 58.0842 52.6348 58.7642 52.3788C59.4442 52.1227 60.7442 51.65 60.9042 51.5712C61.0642 51.4924 61.0242 51.4333 60.5242 51.3742C60.0242 51.3348 58.6442 51.1379 58.0042 51.3151C57.3642 51.4924 56.3042 51.7485 56.2042 51.8863C56.1242 52.0242 56.0442 52.0242 56.1242 52.5166C56.2042 52.9894 56.6842 55.3136 56.7242 55.7272C56.7642 56.1409 56.8642 56.4166 56.4042 56.5151C55.9642 56.6136 55.2042 56.7909 54.9442 56.7909C54.6842 56.7909 53.9242 56.6136 53.4842 56.5151C53.0442 56.4166 53.1242 56.1409 53.1642 55.7272C53.2042 55.3136 53.6642 53.0091 53.7642 52.5166C53.8442 52.0439 53.7842 52.0242 53.6842 51.8863C53.6042 51.7485 52.5242 51.4924 51.8842 51.3151C51.2442 51.1379 49.8642 51.3151 49.3642 51.3742C48.8642 51.4136 48.8242 51.4924 48.9842 51.5712C49.1442 51.65 50.4442 52.1227 51.1242 52.3788C51.8042 52.6348 52.7442 52.9106 52.8442 53.4424C52.9442 53.9742 52.3642 54.7818 52.0242 55.3924C51.7042 56.003 51.6842 56.0621 51.7042 56.3182C51.7242 56.5545 52.8242 57.1848 53.0642 57.3424C53.3042 57.5 54.6242 58.2091 54.6242 58.603C54.6242 58.9969 53.3642 60.0212 52.9642 60.2772C52.5642 60.5333 51.4842 61.0848 51.0042 61.1833C50.5442 61.2621 49.8242 60.75 49.4042 59.9818C48.9842 59.2136 49.3642 58.4454 49.6242 57.8348C49.8842 57.2439 49.4442 56.9091 49.2242 56.6727C49.0642 56.4363 47.4442 54.7227 47.0642 54.3485C46.6842 53.9545 46.3242 53.7575 46.3242 53.0091C46.3242 52.2606 49.2842 48.7151 49.2842 48.7151C49.2842 48.7151 51.7842 49.1879 52.1242 49.1879C52.4642 49.1879 53.1842 48.9121 53.8642 48.6954C54.5442 48.4788 54.9842 48.4788 54.9842 48.4788C54.9842 48.4788 55.4242 48.4788 56.1042 48.6954C56.7842 48.9121 57.5042 49.1879 57.8442 49.1879C58.1842 49.1879 60.6842 48.7151 60.6842 48.7151ZM58.4642 62.2075C58.6442 62.3257 58.5442 62.5424 58.3642 62.6409C58.2042 62.7591 55.9442 64.4727 55.7442 64.6697C55.5242 64.8666 55.2042 65.1621 54.9842 65.1621C54.7642 65.1621 54.4442 64.8469 54.2242 64.6697C54.0042 64.4727 51.7642 62.7591 51.6042 62.6409C51.4442 62.5227 51.3242 62.306 51.5042 62.2075C51.6842 62.0894 52.2642 61.8136 53.0442 61.4C53.8442 60.9863 54.8242 60.6515 54.9842 60.6515C55.1442 60.6515 56.1242 60.9863 56.9242 61.4C57.7042 61.8136 58.2642 62.1091 58.4642 62.2075Z" fill="white"/>
<path d="M61.3284 47.0803L59.0284 44.5H54.9884H50.9284L48.6284 47.0803C48.6284 47.0803 46.6084 46.5288 45.6484 47.4742C45.6484 47.4742 48.3484 47.2379 49.2684 48.7152C49.2684 48.7152 51.7684 49.1879 52.1084 49.1879C52.4484 49.1879 53.1684 48.9121 53.8484 48.6955C54.5284 48.4788 54.9684 48.4788 54.9684 48.4788C54.9684 48.4788 55.4084 48.4788 56.0884 48.6955C56.7684 48.9121 57.4884 49.1879 57.8284 49.1879C58.1684 49.1879 60.6684 48.7152 60.6684 48.7152C61.5884 47.2379 64.2884 47.4742 64.2884 47.4742C63.3484 46.5288 61.3284 47.0803 61.3284 47.0803Z" fill="#898989"/>
</g>
<defs>
<clipPath id="clip0_6576_72972">
<rect width="86" height="26" fill="white" transform="translate(43.668 44.5)"/>
</clipPath>
</defs>
</svg>
