<svg width="174" height="115" viewBox="0 0 174 115" fill="none" xmlns="http://www.w3.org/2000/svg">
<g clip-path="url(#clip0_6576_72965)">
<path d="M55.9571 53.3795C55.5264 53.1172 54.9726 53.1172 54.4958 53.3795L51.158 55.4166L48.8816 56.7437L45.5438 58.7808C45.1131 59.0432 44.5593 59.0432 44.0825 58.7808L41.4215 57.1913C40.9908 56.9289 40.6986 56.4351 40.6986 55.9104V52.7776C40.6986 52.2529 40.9601 51.7591 41.4215 51.4968L44.0364 49.9535C44.4671 49.6912 45.0208 49.6912 45.4976 49.9535L48.1125 51.4968C48.5432 51.7591 48.8354 52.2529 48.8354 52.7776V54.8147L51.1119 53.4412V51.4042C51.1119 50.8795 50.8504 50.3856 50.3889 50.1233L45.5438 47.2066C45.1131 46.9442 44.5593 46.9442 44.0825 47.2066L39.1604 50.1233C38.6836 50.3856 38.4375 50.8795 38.4375 51.4042V57.2684C38.4375 57.7931 38.699 58.287 39.1604 58.5493L44.0825 61.466C44.5132 61.7284 45.0669 61.7284 45.5438 61.466L48.8816 59.4753L51.158 58.1018L54.4958 56.111C54.9265 55.8487 55.4802 55.8487 55.9571 56.111L58.5719 57.6542C59.0026 57.9166 59.2949 58.4104 59.2949 58.9351V62.0679C59.2949 62.5926 59.0334 63.0864 58.5719 63.3488L55.9571 64.9383C55.5264 65.2006 54.9726 65.2006 54.4958 64.9383L51.881 63.3951C51.4503 63.1327 51.158 62.6389 51.158 62.1142V60.0771L48.8816 61.4506V63.4877C48.8816 64.0124 49.143 64.5062 49.6045 64.7685L54.5266 67.6852C54.9573 67.9476 55.511 67.9476 55.9878 67.6852L60.9099 64.7685C61.3406 64.5062 61.6328 64.0124 61.6328 63.4877V57.6234C61.6328 57.0987 61.3714 56.6049 60.9099 56.3425L55.9571 53.3795Z" fill="#808080"/>
<path d="M70.7035 66.0032V61.1266C71.2265 61.7902 72.1801 62.1606 73.2722 62.1606C76.0716 62.1606 77.9789 60.139 77.9789 57.0679C77.9789 53.9969 76.2408 51.9753 73.5029 51.9753C72.2416 51.9753 71.2726 52.4382 70.7035 53.2099V52.1296H68.0117V65.9878H70.7035V66.0032ZM72.9492 59.8149C71.5033 59.8149 70.5497 58.7192 70.5497 57.0679C70.5497 55.4012 71.5033 54.3056 72.9492 54.3056C74.3643 54.3056 75.3333 55.4012 75.3333 57.0679C75.3179 58.7192 74.3489 59.8149 72.9492 59.8149Z" fill="#848484"/>
<path d="M84.0864 62.1606C87.0858 62.1606 89.2392 60.0001 89.2392 57.0679C89.2392 54.1358 87.0858 51.9753 84.0864 51.9753C81.087 51.9753 78.9336 54.1358 78.9336 57.0679C78.9336 60.0001 81.087 62.1606 84.0864 62.1606ZM84.0864 59.8149C82.6405 59.8149 81.6407 58.7038 81.6407 57.0679C81.6407 55.4167 82.6252 54.3056 84.0864 54.3056C85.5323 54.3056 86.5321 55.4167 86.5321 57.0679C86.5321 58.7038 85.5323 59.8149 84.0864 59.8149Z" fill="#848484"/>
<path d="M93.5433 62.0062V47.8548H90.8516V62.0062H93.5433Z" fill="#848484"/>
<path d="M101.638 52.145L99.6076 58.5031L97.5619 52.145H94.8086L98.3463 61.929L96.9159 66.0032H99.4846L100.854 61.9753L104.391 52.145H101.638Z" fill="#848484"/>
<path d="M111.979 53.1173C111.44 52.4382 110.471 51.9753 109.287 51.9753C106.441 51.9753 104.719 53.9969 104.719 57.0679C104.719 60.139 106.441 62.1606 109.333 62.1606C110.471 62.1606 111.502 61.7285 112.01 61.0032V62.2995C112.01 63.2254 111.41 63.8581 110.594 63.8581H106.088V65.9878H111.01C113.209 65.9878 114.686 64.6298 114.686 62.5773V52.1296H111.979V53.1173ZM109.749 59.8149C108.318 59.8149 107.364 58.7346 107.364 57.0679C107.364 55.4012 108.318 54.3056 109.749 54.3056C111.194 54.3056 112.148 55.4012 112.148 57.0679C112.148 58.7346 111.194 59.8149 109.749 59.8149Z" fill="#848484"/>
<path d="M121.461 62.1606C124.461 62.1606 126.614 60.0001 126.614 57.0679C126.614 54.1358 124.461 51.9753 121.461 51.9753C118.462 51.9753 116.309 54.1358 116.309 57.0679C116.309 60.0001 118.462 62.1606 121.461 62.1606ZM121.461 59.8149C120.016 59.8149 119.016 58.7038 119.016 57.0679C119.016 55.4167 120 54.3056 121.461 54.3056C122.907 54.3056 123.907 55.4167 123.907 57.0679C123.892 58.7038 122.907 59.8149 121.461 59.8149Z" fill="#848484"/>
<path d="M130.785 62.0062V56.6049C130.785 55.3395 131.616 54.4135 132.8 54.4135C133.923 54.4135 134.677 55.2777 134.677 56.466V62.0062H137.384V55.8642C137.384 53.5956 135.953 51.9907 133.739 51.9907C132.4 51.9907 131.324 52.5617 130.77 53.5185V52.145H128.078V62.0062H130.785Z" fill="#848484"/>
</g>
<defs>
<clipPath id="clip0_6576_72965">
<rect width="101" height="32" fill="white" transform="translate(36.8359 41.5)"/>
</clipPath>
</defs>
</svg>
